<svg width="340" height="506" viewBox="0 0 340 506" fill="none" xmlns="http://www.w3.org/2000/svg">
<g clip-path="url(#clip0_42_2)">
<path fill-rule="evenodd" clip-rule="evenodd" d="M260 373L340 253L260 133L180 253L260 373ZM260 336.944L315.963 253L260 169.056L204.037 253L260 336.944Z" fill="#C08A40"/>
<path fill-rule="evenodd" clip-rule="evenodd" d="M170 240L250 120L170 0L90 120L170 240ZM170 203.944L225.963 120L170 36.0555L114.037 120L170 203.944Z" fill="#C08A40"/>
<path fill-rule="evenodd" clip-rule="evenodd" d="M12 235L0 253L170 506L182 488L92 355L160 253L148 235L80 337L54 298L122 196L110 178L42 280L12 235Z" fill="#C08A40"/>
</g>
<defs>
<clipPath id="clip0_42_2">
<rect width="340" height="506" fill="white"/>
</clipPath>
</defs>
</svg>
