<svg width="873" height="402" viewBox="0 0 873 402" fill="none" xmlns="http://www.w3.org/2000/svg">
<g clip-path="url(#clip0_42_50)">
<path fill-rule="evenodd" clip-rule="evenodd" d="M206.471 296.205L270 200.911L206.471 105.617L142.941 200.911L206.471 296.205ZM206.471 267.573L250.912 200.911L206.471 134.25L162.029 200.911L206.471 267.573Z" fill="#227957"/>
<path fill-rule="evenodd" clip-rule="evenodd" d="M135 190.588L198.529 95.294L135 0L71.4706 95.294L135 190.588ZM135 161.956L179.441 95.294L135 28.6323L90.5588 95.294L135 161.956Z" fill="#227957"/>
<path fill-rule="evenodd" clip-rule="evenodd" d="M9.52941 186.617L0 200.911L135 401.823L144.529 387.529L73.0588 281.911L127.059 200.911L117.529 186.617L63.5294 267.617L42.8824 236.647L96.8823 155.647L87.3529 141.353L33.3529 222.353L9.52941 186.617Z" fill="#227957"/>
</g>
<path d="M365.469 312.412V123.349H422.402V141.933H387.598V201.66H420.254V220.458H387.598V312.412H365.469ZM468.07 314.56C458.616 314.56 451.133 312.483 445.618 308.33C440.176 304.176 436.273 297.91 433.909 289.531C431.618 281.152 430.472 270.66 430.472 258.056V174.697C430.472 163.811 431.546 154.358 433.695 146.337C435.843 138.317 439.674 132.086 445.189 127.646C450.703 123.206 458.509 120.986 468.607 120.986C476.198 120.986 482.392 122.275 487.191 124.853C491.989 127.36 495.677 130.976 498.255 135.703C500.905 140.358 502.731 145.979 503.734 152.568C504.736 159.156 505.238 166.533 505.238 174.697V258.056C505.238 270.66 504.092 281.152 501.8 289.531C499.58 297.91 495.749 304.176 490.306 308.33C484.935 312.483 477.523 314.56 468.07 314.56ZM468.07 295.439C472.152 295.439 475.267 294.293 477.415 292.001C479.564 289.638 481.032 285.735 481.82 280.292C482.607 274.85 483.001 267.509 483.001 258.271V173.408C483.001 162.093 482.106 153.714 480.316 148.271C478.525 142.828 474.622 140.107 468.607 140.107C462.376 140.107 458.151 142.828 455.931 148.271C453.782 153.642 452.708 161.985 452.708 173.3V258.271C452.708 267.581 453.102 274.957 453.89 280.4C454.678 285.771 456.182 289.638 458.402 292.001C460.622 294.293 463.844 295.439 468.07 295.439ZM556.276 314.56C546.823 314.56 539.339 312.483 533.825 308.33C528.382 304.176 524.479 297.91 522.116 289.531C519.824 281.152 518.678 270.66 518.678 258.056V174.697C518.678 163.811 519.752 154.358 521.901 146.337C524.049 138.317 527.881 132.086 533.395 127.646C538.909 123.206 546.715 120.986 556.813 120.986C564.404 120.986 570.599 122.275 575.397 124.853C580.195 127.36 583.883 130.976 586.461 135.703C589.111 140.358 590.937 145.979 591.94 152.568C592.942 159.156 593.444 166.533 593.444 174.697V258.056C593.444 270.66 592.298 281.152 590.006 289.531C587.786 297.91 583.955 304.176 578.512 308.33C573.141 312.483 565.729 314.56 556.276 314.56ZM556.276 295.439C560.358 295.439 563.473 294.293 565.621 292.001C567.77 289.638 569.238 285.735 570.026 280.292C570.814 274.85 571.207 267.509 571.207 258.271V173.408C571.207 162.093 570.312 153.714 568.522 148.271C566.732 142.828 562.829 140.107 556.813 140.107C550.582 140.107 546.357 142.828 544.137 148.271C541.989 153.642 540.914 161.985 540.914 173.3V258.271C540.914 267.581 541.308 274.957 542.096 280.4C542.884 285.771 544.388 289.638 546.608 292.001C548.828 294.293 552.051 295.439 556.276 295.439ZM609.033 312.412V123.349H665.966V141.933H631.162V201.66H663.818V220.458H631.162V312.412H609.033ZM676.184 312.412V123.349H732.688V141.826H698.421V206.494H730.862V224.97H698.421V293.935H733.118V312.412H676.184ZM774.703 314.56C767.04 314.56 760.81 313.199 756.012 310.478C751.214 307.685 747.525 303.746 744.947 298.662C742.369 293.577 740.579 287.597 739.576 280.722C738.645 273.776 738.18 266.113 738.18 257.734V239.365H759.771V258.593C759.771 271.842 760.702 281.331 762.564 287.06C764.498 292.718 768.616 295.546 774.918 295.546C779.286 295.546 782.473 294.544 784.479 292.539C786.555 290.462 787.88 287.167 788.453 282.656C789.026 278.144 789.312 272.2 789.312 264.824C789.312 256.373 787.809 249.104 784.801 243.017C781.865 236.93 777.604 231.093 772.018 225.507L759.664 213.154C756.083 209.501 752.574 205.527 749.137 201.23C745.699 196.861 742.835 191.92 740.543 186.406C738.323 180.891 737.213 174.589 737.213 167.5C737.213 157.975 738.215 149.739 740.221 142.792C742.226 135.846 745.878 130.475 751.178 126.679C756.477 122.884 763.997 120.986 773.736 120.986C781.399 120.986 787.522 122.311 792.105 124.96C796.76 127.61 800.234 131.406 802.525 136.347C804.889 141.217 806.428 147.018 807.145 153.75C807.932 160.481 808.326 167.929 808.326 176.093V187.265H787.057V174.589C787.057 166.927 786.734 160.553 786.09 155.468C785.517 150.312 784.299 146.445 782.438 143.867C780.576 141.289 777.675 140 773.736 140C770.156 140 767.219 140.895 764.928 142.685C762.708 144.404 761.096 147.089 760.094 150.742C759.091 154.394 758.59 159.085 758.59 164.814C758.59 169.827 759.199 173.981 760.416 177.275C761.633 180.498 763.46 183.505 765.895 186.298C768.401 189.091 771.445 192.386 775.025 196.181L787.916 209.824C794.719 216.914 800.27 224.863 804.566 233.671C808.935 242.408 811.119 252.578 811.119 264.179C811.119 274.635 810.081 283.623 808.004 291.142C805.999 298.662 802.382 304.462 797.154 308.544C791.926 312.555 784.443 314.56 774.703 314.56ZM827.89 312.412V141.826H807.05V123.349H869.462V141.826H850.019V312.412H827.89Z" fill="#227957"/>
<g opacity="0.2" clip-path="url(#clip1_42_50)">
<path fill-rule="evenodd" clip-rule="evenodd" d="M270.471 296.205L334 200.911L270.471 105.617L206.941 200.911L270.471 296.205ZM270.471 267.573L314.912 200.911L270.471 134.25L226.029 200.911L270.471 267.573Z" fill="#227957"/>
<path fill-rule="evenodd" clip-rule="evenodd" d="M199 190.588L262.529 95.294L199 0L135.471 95.294L199 190.588ZM199 161.956L243.441 95.294L199 28.6323L154.559 95.294L199 161.956Z" fill="#227957"/>
<path fill-rule="evenodd" clip-rule="evenodd" d="M73.5294 186.617L64 200.911L199 401.823L208.529 387.529L137.059 281.911L191.059 200.911L181.529 186.617L127.529 267.617L106.882 236.647L160.882 155.647L151.353 141.353L97.3529 222.353L73.5294 186.617Z" fill="#227957"/>
</g>
<defs>
<clipPath id="clip0_42_50">
<rect width="270" height="401.823" fill="white"/>
</clipPath>
<clipPath id="clip1_42_50">
<rect width="270" height="401.823" fill="white" transform="translate(64)"/>
</clipPath>
</defs>
</svg>
